<?xml version="1.0" encoding="UTF-8" standalone="no"?><!DOCTYPE svg PUBLIC "-//W3C//DTD SVG 1.1//EN" "http://www.w3.org/Graphics/SVG/1.1/DTD/svg11.dtd"><svg width="100%" height="100%" viewBox="0 0 1418 697" version="1.1" xmlns="http://www.w3.org/2000/svg" xmlns:xlink="http://www.w3.org/1999/xlink" xml:space="preserve" xmlns:serif="http://www.serif.com/" style="fill-rule:evenodd;clip-rule:evenodd;stroke-linejoin:round;stroke-miterlimit:2;"><rect id="Artboard1" x="0" y="0" width="1417.42" height="696.849" style="fill:none;"/><g id="Layer_1"><path d="M356.68,57.617c1.765,-1.956 3.394,-4.03 4.875,-6.208c1.062,-1.721 1.969,-3.534 2.709,-5.417l-1.959,-0c-2.044,2.472 -4.288,4.771 -6.708,6.875c-2.185,2.001 -4.557,3.787 -7.083,5.334l-0,1.375c2.53,1.477 4.903,3.208 7.083,5.166c2.421,2.104 4.665,4.403 6.708,6.875l1.959,-0c-0.802,-1.937 -1.764,-3.805 -2.875,-5.583c-1.439,-2.124 -3.026,-4.143 -4.75,-6.042l33.708,-0c-1.707,1.903 -3.28,3.922 -4.708,6.042c-1.112,1.778 -2.074,3.646 -2.875,5.583l1.958,-0c2.057,-2.486 4.315,-4.799 6.75,-6.916c2.176,-1.964 4.549,-3.695 7.083,-5.167l-0,-1.375c-2.391,-1.482 -4.65,-3.169 -6.75,-5.042c-2.587,-2.153 -4.972,-4.537 -7.125,-7.125l-1.958,-0c0.74,1.883 1.646,3.696 2.708,5.417c1.485,2.176 3.114,4.25 4.875,6.208l-33.625,-0Z" style="fill-rule:nonzero;"/><path d="M1135.55,65.992c-1.111,1.778 -2.073,3.646 -2.875,5.584l1.959,-0c2.085,-2.476 4.371,-4.775 6.833,-6.875c2.176,-1.964 4.549,-3.695 7.083,-5.167l-0,-1.375c-2.391,-1.482 -4.65,-3.169 -6.75,-5.042c-2.587,-2.153 -4.972,-4.537 -7.125,-7.125l-1.958,-0c0.74,1.883 1.646,3.696 2.708,5.417c1.485,2.176 3.114,4.25 4.875,6.208l-37.5,-0l-0,2.375l37.5,-0c-1.706,1.903 -3.28,3.922 -4.708,6.042l-0.042,-0.042Z" style="fill-rule:nonzero;"/><path d="M936.571,133.867c1.776,1.116 3.644,2.078 5.584,2.875l-0,-1.958c-2.484,-2.076 -4.797,-4.347 -6.917,-6.792c-1.96,-2.178 -3.691,-4.551 -5.167,-7.083l-1.416,-0c-1.492,2.385 -3.178,4.643 -5.042,6.75c-2.151,2.589 -4.536,4.974 -7.125,7.125l-0,1.958c1.882,-0.74 3.695,-1.646 5.417,-2.708c2.222,-1.491 4.338,-3.133 6.333,-4.917l-0,37.5l2.375,-0l-0,-37.5c1.874,1.719 3.865,3.307 5.958,4.75Z" style="fill-rule:nonzero;"/><path d="M1268.03,153.659c-1.778,-1.112 -3.646,-2.073 -5.584,-2.875l-0,1.958c2.489,2.055 4.802,4.313 6.917,6.75c1.969,2.181 3.714,4.554 5.208,7.084l1.375,-0c1.482,-2.392 3.169,-4.651 5.042,-6.75c2.153,-2.588 4.538,-4.972 7.125,-7.125l-0,-1.959c-1.883,0.74 -3.695,1.647 -5.417,2.709c-2.176,1.484 -4.25,3.113 -6.208,4.875l-0,-37.5l-2.417,-0l-0,37.5c-1.903,-1.707 -3.921,-3.28 -6.041,-4.709l-0,0.042Z" style="fill-rule:nonzero;"/><path d="M363.639,215.606c1.097,-1.78 2.045,-3.647 2.833,-5.584l-1.958,-0c-2.042,2.474 -4.286,4.774 -6.709,6.875c-2.184,1.964 -4.557,3.709 -7.083,5.209l-0,1.375c2.392,1.482 4.65,3.169 6.75,5.041c2.587,2.153 4.972,4.538 7.125,7.125l1.875,-0c-0.74,-1.882 -1.646,-3.695 -2.708,-5.416c-1.482,-2.178 -3.111,-4.252 -4.875,-6.209l37.5,-0l-0,-2.375l-37.5,-0c1.724,-1.899 3.311,-3.918 4.75,-6.041Z" style="fill-rule:nonzero;"/><path d="M1115.72,215.606c1.112,-1.778 2.073,-3.646 2.875,-5.584l-2.125,-0c-2.002,2.469 -4.204,4.769 -6.583,6.875c-2.185,1.964 -4.558,3.709 -7.084,5.209l-0,1.375c2.392,1.482 4.65,3.169 6.75,5.041c2.515,2.163 4.83,4.547 6.917,7.125l1.958,-0c-0.74,-1.882 -1.646,-3.695 -2.708,-5.416c-1.482,-2.178 -3.111,-4.252 -4.875,-6.209l37.5,-0l-0,-2.375l-37.5,-0c1.724,-1.899 3.312,-3.918 4.75,-6.041l0.125,-0Z" style="fill-rule:nonzero;"/><path d="M383.472,489.992c-1.112,1.778 -2.073,3.646 -2.875,5.584l1.958,-0c2.057,-2.487 4.315,-4.8 6.75,-6.917c2.176,-1.963 4.55,-3.695 7.084,-5.167l-0,-1.375c-2.392,-1.482 -4.651,-3.168 -6.75,-5.041c-2.588,-2.153 -4.972,-4.538 -7.125,-7.125l-1.959,-0c0.74,1.882 1.647,3.695 2.709,5.416c1.484,2.176 3.113,4.25 4.875,6.209l-37.5,-0l-0,2.375l37.5,-0c-1.707,1.903 -3.28,3.921 -4.709,6.041l0.042,-0Z" style="fill-rule:nonzero;"/><path d="M1108.76,481.617c1.764,-1.956 3.393,-4.03 4.875,-6.208c1.062,-1.721 1.968,-3.534 2.708,-5.417l-1.958,-0c-2.06,2.459 -4.317,4.744 -6.75,6.834c-2.185,2 -4.557,3.786 -7.084,5.333l-0,1.375c2.531,1.478 4.904,3.209 7.084,5.167c2.437,2.115 4.695,4.428 6.75,6.916l2.083,-0c-0.802,-1.937 -1.763,-3.805 -2.875,-5.583c-1.438,-2.124 -3.026,-4.143 -4.75,-6.042l33.708,-0c-1.706,1.903 -3.28,3.922 -4.708,6.042c-1.112,1.778 -2.073,3.646 -2.875,5.583l1.958,-0c2.057,-2.486 4.315,-4.799 6.75,-6.916c2.176,-1.964 4.55,-3.695 7.084,-5.167l-0,-1.375c-2.392,-1.482 -4.651,-3.169 -6.75,-5.042c-2.588,-2.153 -4.972,-4.537 -7.125,-7.125l-1.959,-0c0.74,1.883 1.647,3.696 2.709,5.417c1.484,2.176 3.113,4.25 4.875,6.208l-33.75,-0Z" style="fill-rule:nonzero;"/><path d="M518.764,571.784c-1.778,-1.112 -3.646,-2.073 -5.584,-2.875l-0,1.958c2.489,2.055 4.802,4.313 6.917,6.75c1.969,2.181 3.714,4.554 5.208,7.084l1.375,-0c1.482,-2.392 3.169,-4.651 5.042,-6.75c2.153,-2.588 4.538,-4.972 7.125,-7.125l-0,-1.959c-1.883,0.74 -3.695,1.647 -5.417,2.709c-2.176,1.484 -4.25,3.113 -6.208,4.875l-0,-37.5l-2.417,-0l-0,37.5c-1.903,-1.707 -3.921,-3.28 -6.041,-4.709l-0,0.042Z" style="fill-rule:nonzero;"/><path d="M356.68,638.742c1.765,-1.956 3.394,-4.03 4.875,-6.208c1.062,-1.721 1.969,-3.534 2.709,-5.417l-1.959,-0c-2.049,2.428 -4.293,4.686 -6.708,6.75c-2.185,2.001 -4.557,3.787 -7.083,5.334l-0,1.375c2.53,1.477 4.903,3.208 7.083,5.166c2.426,2.143 4.67,4.485 6.708,7l1.959,-0c-0.802,-1.937 -1.764,-3.805 -2.875,-5.583c-1.439,-2.124 -3.026,-4.143 -4.75,-6.042l33.708,-0c-1.707,1.903 -3.28,3.922 -4.708,6.042c-1.112,1.778 -2.074,3.646 -2.875,5.583l1.958,-0c2.057,-2.486 4.315,-4.799 6.75,-6.916c2.176,-1.964 4.549,-3.695 7.083,-5.167l-0,-1.375c-2.391,-1.482 -4.65,-3.169 -6.75,-5.042c-2.587,-2.153 -4.972,-4.537 -7.125,-7.125l-1.958,-0c0.74,1.883 1.646,3.696 2.708,5.417c1.485,2.176 3.114,4.25 4.875,6.208l-33.625,-0Z" style="fill-rule:nonzero;"/><path d="M1108.76,638.742c1.764,-1.956 3.393,-4.03 4.875,-6.208c1.062,-1.721 1.968,-3.534 2.708,-5.417l-1.958,-0c-2.06,2.459 -4.317,4.744 -6.75,6.834c-2.185,2 -4.557,3.786 -7.084,5.333l-0,1.375c2.531,1.478 4.904,3.209 7.084,5.167c2.437,2.115 4.695,4.428 6.75,6.916l2.083,-0c-0.802,-1.937 -1.763,-3.805 -2.875,-5.583c-1.438,-2.124 -3.026,-4.143 -4.75,-6.042l33.708,-0c-1.706,1.903 -3.28,3.922 -4.708,6.042c-1.112,1.778 -2.073,3.646 -2.875,5.583l1.958,-0c2.057,-2.486 4.315,-4.799 6.75,-6.916c2.176,-1.964 4.55,-3.695 7.084,-5.167l-0,-1.375c-2.392,-1.482 -4.651,-3.169 -6.75,-5.042c-2.588,-2.153 -4.972,-4.537 -7.125,-7.125l-1.959,-0c0.74,1.883 1.647,3.696 2.709,5.417c1.484,2.176 3.113,4.25 4.875,6.208l-33.75,-0Z" style="fill-rule:nonzero;"/><g><text x="29.18px" y="71.576px" style="font-family:'MinionPro-Regular', 'Minion Pro', serif;font-size:50px;">1.1</text><text x="99.93px" y="71.576px" style="font-family:'MinionPro-Regular', 'Minion Pro', serif;font-size:50px;">H</text><text x="136.972px" y="71.576px" style="font-family:'MinionPro-Regular', 'Minion Pro', serif;font-size:50px;">e</text><text x="158.222px" y="71.576px" style="font-family:'MinionPro-Regular', 'Minion Pro', serif;font-size:50px;">r</text><text x="177.097px" y="71.576px" style="font-family:'MinionPro-Regular', 'Minion Pro', serif;font-size:50px;">m</text><text x="218.014px" y="71.576px" style="font-family:'MinionPro-Regular', 'Minion Pro', serif;font-size:50px;">i</text><text x="231.555px" y="71.576px" style="font-family:'MinionPro-Regular', 'Minion Pro', serif;font-size:50px;">a</text></g><g><text x="447.222px" y="71.576px" style="font-family:'MinionPro-Regular', 'Minion Pro', serif;font-size:50px;">L</text><text x="471.93px" y="71.576px" style="font-family:'MinionPro-Regular', 'Minion Pro', serif;font-size:50px;">y</text><text x="494.889px" y="71.576px" style="font-family:'MinionPro-Regular', 'Minion Pro', serif;font-size:50px;">s</text><text x="513.514px" y="71.576px" style="font-family:'MinionPro-Regular', 'Minion Pro', serif;font-size:50px;">a</text><text x="535.014px" y="71.576px" style="font-family:'MinionPro-Regular', 'Minion Pro', serif;font-size:50px;">n</text><text x="562.18px" y="71.576px" style="font-family:'MinionPro-Regular', 'Minion Pro', serif;font-size:50px;">der</text></g><g><text x="447.222px" y="495.576px" style="font-family:'MinionPro-Regular', 'Minion Pro', serif;font-size:50px;">L</text><text x="471.93px" y="495.576px" style="font-family:'MinionPro-Regular', 'Minion Pro', serif;font-size:50px;">y</text><text x="494.889px" y="495.576px" style="font-family:'MinionPro-Regular', 'Minion Pro', serif;font-size:50px;">s</text><text x="513.514px" y="495.576px" style="font-family:'MinionPro-Regular', 'Minion Pro', serif;font-size:50px;">a</text><text x="535.014px" y="495.576px" style="font-family:'MinionPro-Regular', 'Minion Pro', serif;font-size:50px;">n</text><text x="562.18px" y="495.576px" style="font-family:'MinionPro-Regular', 'Minion Pro', serif;font-size:50px;">der</text></g><g><text x="1192.18px" y="495.576px" style="font-family:'MinionPro-Regular', 'Minion Pro', serif;font-size:50px;">L</text><text x="1216.89px" y="495.576px" style="font-family:'MinionPro-Regular', 'Minion Pro', serif;font-size:50px;">y</text><text x="1239.85px" y="495.576px" style="font-family:'MinionPro-Regular', 'Minion Pro', serif;font-size:50px;">s</text><text x="1258.47px" y="495.576px" style="font-family:'MinionPro-Regular', 'Minion Pro', serif;font-size:50px;">a</text><text x="1279.97px" y="495.576px" style="font-family:'MinionPro-Regular', 'Minion Pro', serif;font-size:50px;">n</text><text x="1307.14px" y="495.576px" style="font-family:'MinionPro-Regular', 'Minion Pro', serif;font-size:50px;">der</text></g><g><text x="146.347px" y="495.576px" style="font-family:'MinionPro-Regular', 'Minion Pro', serif;font-size:50px;">H</text><text x="183.389px" y="495.576px" style="font-family:'MinionPro-Regular', 'Minion Pro', serif;font-size:50px;">e</text><text x="204.639px" y="495.576px" style="font-family:'MinionPro-Regular', 'Minion Pro', serif;font-size:50px;">r</text><text x="223.514px" y="495.576px" style="font-family:'MinionPro-Regular', 'Minion Pro', serif;font-size:50px;">m</text><text x="264.43px" y="495.576px" style="font-family:'MinionPro-Regular', 'Minion Pro', serif;font-size:50px;">i</text><text x="278.014px" y="495.576px" style="font-family:'MinionPro-Regular', 'Minion Pro', serif;font-size:50px;">a</text></g><g><text x="900.305px" y="495.576px" style="font-family:'MinionPro-Regular', 'Minion Pro', serif;font-size:50px;">H</text><text x="937.347px" y="495.576px" style="font-family:'MinionPro-Regular', 'Minion Pro', serif;font-size:50px;">e</text><text x="958.597px" y="495.576px" style="font-family:'MinionPro-Regular', 'Minion Pro', serif;font-size:50px;">r</text><text x="977.472px" y="495.576px" style="font-family:'MinionPro-Regular', 'Minion Pro', serif;font-size:50px;">m</text><text x="1018.39px" y="495.576px" style="font-family:'MinionPro-Regular', 'Minion Pro', serif;font-size:50px;">i</text><text x="1031.97px" y="495.576px" style="font-family:'MinionPro-Regular', 'Minion Pro', serif;font-size:50px;">a</text></g><g><text x="87.764px" y="235.606px" style="font-family:'MinionPro-Regular', 'Minion Pro', serif;font-size:50px;">D</text><text x="124.805px" y="235.606px" style="font-family:'MinionPro-Regular', 'Minion Pro', serif;font-size:50px;">e</text><text x="146.055px" y="235.606px" style="font-family:'MinionPro-Regular', 'Minion Pro', serif;font-size:50px;">m</text><text x="186.805px" y="235.606px" style="font-family:'MinionPro-Regular', 'Minion Pro', serif;font-size:50px;">e</text><text x="208.055px" y="235.606px" style="font-family:'MinionPro-Regular', 'Minion Pro', serif;font-size:50px;">t</text><text x="223.555px" y="235.606px" style="font-family:'MinionPro-Regular', 'Minion Pro', serif;font-size:50px;">r</text><text x="242.389px" y="235.606px" style="font-family:'MinionPro-Regular', 'Minion Pro', serif;font-size:50px;">i</text><text x="255.222px" y="235.606px" style="font-family:'MinionPro-Regular', 'Minion Pro', serif;font-size:50px;">u</text><text x="281.597px" y="235.606px" style="font-family:'MinionPro-Regular', 'Minion Pro', serif;font-size:50px;">s</text></g><g><text x="87.764px" y="652.701px" style="font-family:'MinionPro-Regular', 'Minion Pro', serif;font-size:50px;">D</text><text x="124.805px" y="652.701px" style="font-family:'MinionPro-Regular', 'Minion Pro', serif;font-size:50px;">e</text><text x="146.055px" y="652.701px" style="font-family:'MinionPro-Regular', 'Minion Pro', serif;font-size:50px;">m</text><text x="186.805px" y="652.701px" style="font-family:'MinionPro-Regular', 'Minion Pro', serif;font-size:50px;">e</text><text x="208.055px" y="652.701px" style="font-family:'MinionPro-Regular', 'Minion Pro', serif;font-size:50px;">t</text><text x="223.555px" y="652.701px" style="font-family:'MinionPro-Regular', 'Minion Pro', serif;font-size:50px;">r</text><text x="242.389px" y="652.701px" style="font-family:'MinionPro-Regular', 'Minion Pro', serif;font-size:50px;">i</text><text x="255.222px" y="652.701px" style="font-family:'MinionPro-Regular', 'Minion Pro', serif;font-size:50px;">u</text><text x="281.597px" y="652.701px" style="font-family:'MinionPro-Regular', 'Minion Pro', serif;font-size:50px;">s</text></g><g><text x="29.18px" y="403.576px" style="font-family:'MinionPro-Regular', 'Minion Pro', serif;font-size:50px;">3.2</text><text x="99.93px" y="403.576px" style="font-family:'MinionPro-Regular', 'Minion Pro', serif;font-size:50px;">t</text><text x="114.889px" y="403.576px" style="font-family:'MinionPro-Regular', 'Minion Pro', serif;font-size:50px;">o</text><text x="151.722px" y="403.576px" style="font-family:'MinionPro-Regular', 'Minion Pro', serif;font-size:50px;">l</text><text x="164.097px" y="403.576px" style="font-family:'MinionPro-Regular', 'Minion Pro', serif;font-size:50px;">. 121</text></g><g><text x="784.972px" y="403.576px" style="font-family:'MinionPro-Regular', 'Minion Pro', serif;font-size:50px;">3.2,</text><text x="867.139px" y="403.576px" style="font-family:'MinionPro-Regular', 'Minion Pro', serif;font-size:50px;">l</text><text x="880.014px" y="403.576px" style="font-family:'MinionPro-Regular', 'Minion Pro', serif;font-size:50px;">l</text><text x="892.389px" y="403.576px" style="font-family:'MinionPro-Regular', 'Minion Pro', serif;font-size:50px;">. 450–463</text></g><g><text x="447.222px" y="235.606px" style="font-family:'MinionPro-Regular', 'Minion Pro', serif;font-size:50px;">H</text><text x="484.264px" y="235.606px" style="font-family:'MinionPro-Regular', 'Minion Pro', serif;font-size:50px;">e</text><text x="505.305px" y="235.606px" style="font-family:'MinionPro-Regular', 'Minion Pro', serif;font-size:50px;">le</text><text x="539.222px" y="235.606px" style="font-family:'MinionPro-Regular', 'Minion Pro', serif;font-size:50px;">n</text><text x="566.43px" y="235.606px" style="font-family:'MinionPro-Regular', 'Minion Pro', serif;font-size:50px;">a</text></g><g><text x="447.222px" y="652.701px" style="font-family:'MinionPro-Regular', 'Minion Pro', serif;font-size:50px;">H</text><text x="484.264px" y="652.701px" style="font-family:'MinionPro-Regular', 'Minion Pro', serif;font-size:50px;">e</text><text x="505.305px" y="652.701px" style="font-family:'MinionPro-Regular', 'Minion Pro', serif;font-size:50px;">le</text><text x="539.222px" y="652.701px" style="font-family:'MinionPro-Regular', 'Minion Pro', serif;font-size:50px;">n</text><text x="566.43px" y="652.701px" style="font-family:'MinionPro-Regular', 'Minion Pro', serif;font-size:50px;">a</text></g><g><text x="841.722px" y="235.606px" style="font-family:'MinionPro-Regular', 'Minion Pro', serif;font-size:50px;">D</text><text x="878.764px" y="235.606px" style="font-family:'MinionPro-Regular', 'Minion Pro', serif;font-size:50px;">e</text><text x="900.014px" y="235.606px" style="font-family:'MinionPro-Regular', 'Minion Pro', serif;font-size:50px;">m</text><text x="940.764px" y="235.606px" style="font-family:'MinionPro-Regular', 'Minion Pro', serif;font-size:50px;">e</text><text x="962.014px" y="235.606px" style="font-family:'MinionPro-Regular', 'Minion Pro', serif;font-size:50px;">t</text><text x="977.514px" y="235.606px" style="font-family:'MinionPro-Regular', 'Minion Pro', serif;font-size:50px;">r</text><text x="996.347px" y="235.606px" style="font-family:'MinionPro-Regular', 'Minion Pro', serif;font-size:50px;">i</text><text x="1009.18px" y="235.606px" style="font-family:'MinionPro-Regular', 'Minion Pro', serif;font-size:50px;">u</text><text x="1035.55px" y="235.606px" style="font-family:'MinionPro-Regular', 'Minion Pro', serif;font-size:50px;">s</text></g><g><text x="841.722px" y="652.701px" style="font-family:'MinionPro-Regular', 'Minion Pro', serif;font-size:50px;">D</text><text x="878.764px" y="652.701px" style="font-family:'MinionPro-Regular', 'Minion Pro', serif;font-size:50px;">e</text><text x="900.014px" y="652.701px" style="font-family:'MinionPro-Regular', 'Minion Pro', serif;font-size:50px;">m</text><text x="940.764px" y="652.701px" style="font-family:'MinionPro-Regular', 'Minion Pro', serif;font-size:50px;">e</text><text x="962.014px" y="652.701px" style="font-family:'MinionPro-Regular', 'Minion Pro', serif;font-size:50px;">t</text><text x="977.514px" y="652.701px" style="font-family:'MinionPro-Regular', 'Minion Pro', serif;font-size:50px;">r</text><text x="996.347px" y="652.701px" style="font-family:'MinionPro-Regular', 'Minion Pro', serif;font-size:50px;">i</text><text x="1009.18px" y="652.701px" style="font-family:'MinionPro-Regular', 'Minion Pro', serif;font-size:50px;">u</text><text x="1035.55px" y="652.701px" style="font-family:'MinionPro-Regular', 'Minion Pro', serif;font-size:50px;">s</text></g><g><text x="1192.18px" y="235.606px" style="font-family:'MinionPro-Regular', 'Minion Pro', serif;font-size:50px;">H</text><text x="1229.22px" y="235.606px" style="font-family:'MinionPro-Regular', 'Minion Pro', serif;font-size:50px;">e</text><text x="1250.26px" y="235.606px" style="font-family:'MinionPro-Regular', 'Minion Pro', serif;font-size:50px;">le</text><text x="1284.18px" y="235.606px" style="font-family:'MinionPro-Regular', 'Minion Pro', serif;font-size:50px;">n</text><text x="1311.39px" y="235.606px" style="font-family:'MinionPro-Regular', 'Minion Pro', serif;font-size:50px;">a</text></g><g><text x="1192.18px" y="652.701px" style="font-family:'MinionPro-Regular', 'Minion Pro', serif;font-size:50px;">H</text><text x="1229.22px" y="652.701px" style="font-family:'MinionPro-Regular', 'Minion Pro', serif;font-size:50px;">e</text><text x="1250.26px" y="652.701px" style="font-family:'MinionPro-Regular', 'Minion Pro', serif;font-size:50px;">le</text><text x="1284.18px" y="652.701px" style="font-family:'MinionPro-Regular', 'Minion Pro', serif;font-size:50px;">n</text><text x="1311.39px" y="652.701px" style="font-family:'MinionPro-Regular', 'Minion Pro', serif;font-size:50px;">a</text></g><g><text x="784.972px" y="71.576px" style="font-family:'MinionPro-Regular', 'Minion Pro', serif;font-size:50px;">2.2</text><text x="855.722px" y="71.576px" style="font-family:'MinionPro-Regular', 'Minion Pro', serif;font-size:50px;">H</text><text x="892.764px" y="71.576px" style="font-family:'MinionPro-Regular', 'Minion Pro', serif;font-size:50px;">e</text><text x="914.014px" y="71.576px" style="font-family:'MinionPro-Regular', 'Minion Pro', serif;font-size:50px;">r</text><text x="932.889px" y="71.576px" style="font-family:'MinionPro-Regular', 'Minion Pro', serif;font-size:50px;">m</text><text x="973.805px" y="71.576px" style="font-family:'MinionPro-Regular', 'Minion Pro', serif;font-size:50px;">i</text><text x="987.347px" y="71.576px" style="font-family:'MinionPro-Regular', 'Minion Pro', serif;font-size:50px;">a</text></g><g><text x="1192.18px" y="71.576px" style="font-family:'MinionPro-Regular', 'Minion Pro', serif;font-size:50px;">L</text><text x="1216.89px" y="71.576px" style="font-family:'MinionPro-Regular', 'Minion Pro', serif;font-size:50px;">y</text><text x="1239.85px" y="71.576px" style="font-family:'MinionPro-Regular', 'Minion Pro', serif;font-size:50px;">s</text><text x="1258.47px" y="71.576px" style="font-family:'MinionPro-Regular', 'Minion Pro', serif;font-size:50px;">a</text><text x="1279.97px" y="71.576px" style="font-family:'MinionPro-Regular', 'Minion Pro', serif;font-size:50px;">n</text><text x="1307.14px" y="71.576px" style="font-family:'MinionPro-Regular', 'Minion Pro', serif;font-size:50px;">der</text></g></g></svg>